<?xml version="1.0" standalone="no"?>
<!DOCTYPE svg PUBLIC "-//W3C//DTD SVG 20010904//EN"
 "http://www.w3.org/TR/2001/REC-SVG-20010904/DTD/svg10.dtd">
<svg version="1.0" xmlns="http://www.w3.org/2000/svg"
 width="584.000000pt" height="584.000000pt" viewBox="0 0 584.000000 584.000000"
 preserveAspectRatio="xMidYMid meet">
<metadata>
Created by potrace 1.14, written by Peter Selinger 2001-2017
</metadata>
<g transform="translate(0.000000,584.000000) scale(0.100000,-0.100000)"
fill="#000000" stroke="none">
<path d="M0 2920 l0 -2920 689 0 c542 0 691 3 695 13 5 9 7 9 12 0 3 -7 18
-13 34 -13 l28 0 8 88 c9 118 -3 497 -22 655 -8 70 -14 141 -12 158 l3 30 74
-51 c171 -118 453 -263 611 -315 47 -15 105 -38 130 -50 25 -13 86 -35 135
-50 50 -15 157 -52 240 -82 82 -29 179 -60 215 -67 36 -8 121 -36 190 -64 139
-55 264 -92 313 -92 29 0 83 31 189 109 10 8 21 11 24 8 3 -3 -11 -63 -30
-135 -41 -148 -40 -142 -22 -142 10 0 25 32 43 92 l29 93 119 8 c164 11 260 3
395 -31 174 -45 229 -68 277 -118 l43 -44 715 0 715 0 0 2920 0 2920 -2920 0
-2920 0 0 -2920z m2505 2140 c33 -219 177 -664 291 -900 144 -298 419 -686
684 -965 47 -50 113 -122 146 -160 34 -39 65 -67 70 -62 9 8 0 56 -51 277 -53
231 -111 582 -126 760 -21 251 -22 283 -9 278 7 -2 40 -58 74 -123 139 -268
219 -394 348 -549 32 -39 58 -75 58 -81 0 -11 -72 -6 -162 11 -42 7 -52 -7
-15 -23 12 -6 57 -18 100 -28 42 -10 77 -23 77 -28 0 -5 -13 -22 -30 -37 -30
-28 -40 -72 -20 -85 6 -4 2 -22 -10 -46 -17 -33 -20 -52 -16 -117 3 -42 5 -87
6 -100 0 -39 17 -15 39 57 11 37 28 74 37 81 13 12 15 10 10 -11 -41 -192 -26
-341 49 -476 45 -79 80 -108 167 -134 62 -19 77 -20 123 -10 145 33 220 107
274 269 33 103 37 190 11 316 -12 60 -28 127 -36 150 -17 47 -11 86 12 86 25
0 150 -133 179 -189 56 -111 69 -244 34 -356 -11 -37 -18 -69 -16 -71 8 -9 90
101 114 154 31 65 26 107 -24 209 -46 96 -132 196 -215 252 -58 39 -68 50 -68
75 0 57 22 155 38 169 10 9 66 37 126 63 129 56 116 63 176 -95 23 -58 48
-122 57 -141 26 -58 132 -379 152 -462 l19 -77 -24 -113 c-55 -262 -71 -379
-104 -803 -23 -294 -86 -506 -200 -676 -145 -216 -351 -407 -615 -572 -181
-113 -615 -405 -742 -500 -100 -74 -116 -80 -197 -75 -53 4 -100 17 -186 51
-63 25 -144 53 -180 62 -89 22 -522 168 -645 217 -55 22 -125 48 -155 58 -80
26 -370 168 -478 233 -51 32 -122 80 -158 109 -76 61 -85 84 -109 272 -50 385
-135 929 -201 1286 -64 344 -84 467 -84 527 0 39 13 83 54 185 29 73 70 180
91 238 56 159 56 160 72 160 12 0 13 -12 8 -67 -19 -205 -48 -402 -71 -479
-13 -48 -23 -89 -20 -91 5 -5 104 137 143 206 15 25 49 78 75 117 26 39 48 74
48 77 0 3 25 49 56 101 l56 96 106 -5 107 -5 -70 19 c-103 27 -108 30 -100 59
6 26 232 498 248 519 16 22 26 4 26 -51 0 -30 2 -74 6 -98 7 -47 -20 -376 -35
-428 -5 -18 -7 -37 -4 -42 8 -12 -6 -48 -19 -48 -19 0 -179 -51 -175 -56 3 -2
44 5 91 15 48 10 89 15 92 10 13 -20 -18 -48 -72 -65 -32 -10 -105 -40 -163
-68 -82 -40 -121 -66 -178 -120 -120 -115 -227 -298 -239 -412 l-5 -50 66 -75
c36 -40 81 -86 99 -101 l34 -27 -30 72 c-25 60 -31 90 -35 175 -5 114 9 183
56 282 25 54 136 175 182 200 21 11 21 11 7 -17 -9 -15 -32 -55 -51 -88 -102
-168 -103 -369 -2 -521 50 -74 150 -140 246 -160 229 -48 388 73 425 323 13
87 13 109 -1 198 -21 136 -48 217 -100 296 -24 37 -44 69 -44 72 0 8 118 -60
174 -100 24 -17 66 -61 94 -97 27 -36 52 -63 55 -60 3 3 -1 27 -9 52 -7 26
-14 61 -14 79 0 38 -38 74 -125 114 -75 36 -144 49 -251 49 -86 0 -93 4 -74
40 9 16 20 18 97 14 155 -7 202 -22 357 -114 37 -23 38 -23 27 -3 -6 12 -30
38 -53 58 l-43 36 60 -6 c33 -3 125 -1 205 4 147 9 229 29 276 67 18 15 18 15
-6 9 -81 -19 -224 -25 -370 -15 -334 22 -483 45 -488 72 -3 16 49 159 142 389
84 206 247 740 300 984 48 218 55 229 71 125z m2224 -925 c91 -183 141 -298
141 -321 0 -7 -10 -19 -22 -25 -39 -21 -192 -79 -208 -79 -14 0 -15 39 -15
314 0 173 3 309 7 303 5 -7 48 -93 97 -192z m-750 18 c14 -17 49 -63 76 -103
28 -39 64 -89 80 -110 17 -22 45 -59 62 -82 18 -24 65 -83 103 -132 39 -49 69
-94 67 -100 -5 -17 -250 -99 -265 -89 -18 11 -67 164 -93 288 -11 55 -33 154
-49 220 -15 66 -31 138 -34 160 l-5 40 16 -30 c9 -16 28 -44 42 -62z m1295
-599 c0 -63 -4 -86 -17 -99 -16 -15 -17 -12 -17 48 0 35 -2 100 -5 143 l-5 79
22 -45 c18 -36 23 -61 22 -126z m-4230 49 c-3 -21 -10 -54 -14 -73 -8 -34 -8
-33 -9 15 -1 58 7 95 21 95 5 0 6 -16 2 -37z m3481 -255 c49 -22 57 -141 12
-173 -55 -38 -132 1 -138 70 -3 44 2 63 26 89 26 28 59 33 100 14z m-2419 -86
c25 -16 54 -79 54 -117 0 -52 -21 -82 -67 -94 -73 -20 -131 12 -148 81 -10 39
28 114 63 127 33 11 83 13 98 3z m2082 -484 c35 -35 -6 -110 -47 -88 -39 20
-23 100 19 100 9 0 21 -5 28 -12z m-2464 -128 c13 -12 -1 -57 -20 -64 -45 -17
-80 30 -48 65 17 19 47 18 68 -1z"/>
<path d="M1850 3550 l-25 -8 28 -1 c15 -1 27 4 27 9 0 6 -1 10 -2 9 -2 -1 -14
-5 -28 -9z"/>
<path d="M2998 3505 c-38 -26 -56 -45 -39 -45 14 0 91 52 91 62 0 13 -12 9
-52 -17z"/>
<path d="M3547 1611 c-33 -61 -34 -71 -3 -41 23 21 44 75 34 86 -3 2 -17 -18
-31 -45z"/>
<path d="M3360 1570 c14 -10 27 -17 29 -15 8 8 -22 35 -38 35 -12 0 -10 -5 9
-20z"/>
<path d="M3596 1104 c-8 -21 -8 -24 3 -24 12 0 22 28 12 35 -5 3 -12 -2 -15
-11z"/>
<path d="M3321 1070 c-19 -11 -42 -27 -50 -36 -15 -16 31 7 84 43 29 20 5 15
-34 -7z"/>
</g>
</svg>
